<svg width="309" height="229" viewBox="0 0 309 229" fill="none" xmlns="http://www.w3.org/2000/svg">
<g clip-path="url(#clip0)">
<rect width="309" height="229" fill="white"/>
<path d="M0 201.157H309V201.004H0V201.157Z" fill="#EBEBEB"/>
<path d="M257.569 211.039H269.242V210.886H257.569V211.039Z" fill="#EBEBEB"/>
<path d="M181.106 209.968H199.321V209.814H181.106V209.968Z" fill="#EBEBEB"/>
<path d="M227.836 205.338H256.951V205.184H227.836V205.338Z" fill="#EBEBEB"/>
<path d="M32.4199 206.369H39.2V206.215H32.4199V206.369Z" fill="#EBEBEB"/>
<path d="M44.7021 206.369H68.5291V206.215H44.7021V206.369Z" fill="#EBEBEB"/>
<path d="M105.678 208.962H139.141V208.808H105.678V208.962Z" fill="#EBEBEB"/>
<path d="M27.1398 173.623C26.2046 173.621 25.3081 173.252 24.6468 172.595C23.9855 171.938 23.6134 171.047 23.6123 170.118V3.47491C23.6134 2.54584 23.9855 1.65515 24.6468 0.998199C25.3081 0.341248 26.2046 -0.0283274 27.1398 -0.0294647H146.475C147.41 -0.028165 148.307 0.341482 148.968 0.998416C149.629 1.65535 150.001 2.54595 150.002 3.47491V170.118C150.001 171.047 149.629 171.938 148.968 172.595C148.307 173.252 147.41 173.621 146.475 173.623H27.1398ZM27.1398 0.124021C26.2456 0.124996 25.3882 0.478348 24.7558 1.10655C24.1235 1.73475 23.7678 2.5865 23.7668 3.47491V170.118C23.7678 171.007 24.1235 171.858 24.7558 172.487C25.3882 173.115 26.2456 173.468 27.1398 173.469H146.475C147.369 173.468 148.226 173.114 148.858 172.486C149.491 171.858 149.846 171.006 149.847 170.118V3.47491C149.846 2.5866 149.491 1.73495 148.859 1.10677C148.226 0.478582 147.369 0.125158 146.475 0.124021H27.1398Z" fill="#EBEBEB"/>
<path d="M160.811 173.623C159.876 173.621 158.98 173.252 158.318 172.595C157.657 171.938 157.285 171.047 157.284 170.118V3.47491C157.285 2.54595 157.657 1.65535 158.318 0.998416C158.98 0.341482 159.876 -0.028165 160.811 -0.0294647H280.146C281.081 -0.0283274 281.977 0.341248 282.639 0.998199C283.3 1.65515 283.672 2.54584 283.673 3.47491V170.118C283.672 171.047 283.3 171.938 282.639 172.595C281.977 173.252 281.081 173.621 280.146 173.623H160.811ZM160.811 0.124021C159.917 0.124996 159.06 0.478368 158.427 1.10659C157.795 1.73481 157.439 2.58655 157.439 3.47491V170.118C157.44 171.006 157.795 171.858 158.427 172.486C159.06 173.114 159.917 173.468 160.811 173.469H280.146C281.04 173.468 281.897 173.115 282.53 172.486C283.162 171.858 283.518 171.007 283.519 170.118V3.47491C283.518 2.5865 283.162 1.73475 282.53 1.10655C281.897 0.478348 281.04 0.124996 280.146 0.124021H160.811Z" fill="#EBEBEB"/>
<path d="M257.569 210.885H269.242V211.039H257.569V210.885Z" fill="#EBEBEB"/>
<path d="M181.107 209.814H199.322V209.968H181.107V209.814Z" fill="#EBEBEB"/>
<path d="M227.836 205.184H256.951V205.338H227.836V205.184Z" fill="#EBEBEB"/>
<path d="M32.4199 206.215H39.2V206.369H32.4199V206.215Z" fill="#EBEBEB"/>
<path d="M44.7021 206.215H68.5291V206.369H44.7021V206.215Z" fill="#EBEBEB"/>
<path d="M105.678 208.807H139.141V208.961H105.678V208.807Z" fill="#EBEBEB"/>
<path d="M235.992 68.7589H250.227V65.8237H235.992V68.7589Z" fill="#E6E6E6"/>
<path d="M81.6641 68.7589H235.993V65.8237H81.6641V68.7589Z" fill="#F0F0F0"/>
<path d="M169.203 17.0105H206.928L200.984 65.8237H163.259L169.203 17.0105Z" fill="#F5F5F5"/>
<path d="M176.067 23.409H198.505L194.119 59.4252H171.681L176.067 23.409Z" fill="#FAFAFA"/>
<path d="M114.524 19.2391H160.282L154.61 65.8237H108.852L114.524 19.2391Z" fill="#F5F5F5"/>
<path d="M121.076 25.3459H152.245L148.06 59.7168H116.891L121.076 25.3459Z" fill="#FAFAFA"/>
<path d="M193.822 33.7219H225.355L221.446 65.8237H189.913L193.822 33.7219Z" fill="#F0F0F0"/>
<path d="M198.336 37.9299H219.816L216.931 61.6157H195.452L198.336 37.9299Z" fill="#FAFAFA"/>
<path d="M269.044 107.885C274.655 107.885 278.579 112.911 277.256 118.403L269.862 149.078C268.227 155.862 261.974 160.815 255.042 160.816H255.961L264.749 201.003H262.516L253.727 160.816H247.581L256.369 201.003H254.136L245.347 160.816H220.842L212.053 201.003H209.82L218.607 160.816H212.461L203.673 201.003H201.439L210.227 160.816H202.751C203.267 158.678 205.092 157.063 207.221 156.758L208.63 149.445C209.089 147.059 210.37 144.906 212.255 143.357C214.139 141.809 216.508 140.962 218.954 140.962H218.987L229.566 140.996L234.714 119.634C236.352 112.842 242.612 107.885 249.553 107.885H269.044ZM228.907 143.729L218.981 143.697H218.953C215.237 143.697 212.033 146.333 211.333 149.959L210.021 156.702H217.842C222.43 156.702 226.57 153.423 227.653 148.932L228.907 143.729Z" fill="#E6E6E6"/>
<path d="M119.761 196.02H141.037V102.596H119.761V196.02Z" fill="#F0F0F0"/>
<path d="M43.2852 196.02H136.952V201.003H43.2852V196.02Z" fill="#F0F0F0"/>
<path d="M119.761 196.02H39.2002V102.596H119.761V196.02Z" fill="#F5F5F5"/>
<path d="M111.396 152.849H47.5645V112.276H111.396V152.849Z" fill="#F0F0F0"/>
<path d="M111.396 186.34H47.5645V160.547H111.396V186.34Z" fill="#F0F0F0"/>
<path d="M62.9127 113.89H96.048C96.471 113.889 96.8764 113.722 97.1755 113.425C97.4746 113.127 97.6431 112.725 97.6443 112.305V111.939C97.6432 111.519 97.4746 111.116 97.1755 110.819C96.8764 110.522 96.4711 110.354 96.048 110.353H62.9127C62.4896 110.354 62.0843 110.522 61.7852 110.819C61.4861 111.116 61.3175 111.519 61.3164 111.939V112.305C61.3175 112.725 61.4861 113.127 61.7852 113.425C62.0843 113.722 62.4897 113.889 62.9127 113.89Z" fill="#F5F5F5"/>
<path d="M62.9127 162.316H96.048C96.4711 162.315 96.8766 162.148 97.1757 161.85C97.4748 161.553 97.6433 161.15 97.6443 160.73V160.364C97.6431 159.944 97.4746 159.542 97.1755 159.244C96.8764 158.947 96.471 158.78 96.048 158.779H62.9127C62.4897 158.78 62.0843 158.947 61.7852 159.244C61.4861 159.542 61.3175 159.944 61.3164 160.364V160.73C61.3175 161.15 61.4861 161.553 61.7852 161.85C62.0843 162.147 62.4897 162.314 62.9127 162.316V162.316Z" fill="#F5F5F5"/>
<path d="M203.482 107.885C209.093 107.885 213.018 112.911 211.694 118.403L204.3 149.078C202.665 155.862 196.412 160.815 189.48 160.816H190.399L199.187 201.003H196.954L188.166 160.816H182.019L190.807 201.003H188.574L179.786 160.816H155.28L146.491 201.003H144.258L153.046 160.816H146.9L138.111 201.003H135.878L144.666 160.816H137.19C137.705 158.678 139.53 157.063 141.659 156.758L143.068 149.445C143.527 147.059 144.809 144.906 146.693 143.357C148.578 141.809 150.947 140.962 153.392 140.962H153.425L164.005 140.996L169.153 119.634C170.791 112.842 177.051 107.885 183.991 107.885H203.482ZM163.346 143.729L153.42 143.697H153.392C149.676 143.697 146.472 146.333 145.772 149.959L144.46 156.702H152.281C156.87 156.702 161.01 153.423 162.092 148.932L163.346 143.729Z" fill="#E6E6E6"/>
<path d="M274.324 221.778C274.324 225.618 220.677 228.73 154.5 228.73C88.3235 228.73 34.6768 225.618 34.6768 221.778C34.6768 217.939 88.3235 214.827 154.501 214.827C220.677 214.827 274.324 217.939 274.324 221.778H274.324Z" fill="#F5F5F5"/>
<path d="M93.2722 32.545C93.6986 25.1249 109.5 25.8592 112.602 32.7875C115.704 39.7158 113.154 46.0732 121.764 50.2597C136.983 57.6564 138.64 67.4132 132.88 77.0453C127.121 86.678 104.656 93.4203 92.4342 77.6396C80.3782 62.0743 98.7044 58.6197 89.223 51.2849C80.9357 44.8736 81.6637 33.4334 93.2722 32.545Z" fill="#263238"/>
<path d="M86.5191 68.2764C86.3151 68.5244 86.207 68.6448 86.0605 68.8068C85.9202 68.9658 85.7867 69.1003 85.6489 69.247C85.3733 69.5258 85.0952 69.7965 84.814 70.0507C84.2591 70.5602 83.6856 71.0495 83.0947 71.5174C81.9292 72.427 80.7061 73.2614 79.4331 74.0155C78.1785 74.7817 76.8696 75.4276 75.5545 76.0507C74.8895 76.3442 74.227 76.6419 73.5528 76.9059L72.5393 77.2927L72.0325 77.4861C71.7896 77.5764 71.4547 77.685 71.1241 77.7513C70.4529 77.8956 69.5624 77.8858 68.7596 77.5905C67.9438 77.3013 67.3419 76.7789 66.9272 76.2981C66.1102 75.3091 65.8253 74.4256 65.572 73.6085C65.1208 71.9723 65.0244 70.4995 64.9762 69.0389C64.9138 66.1276 65.2024 63.3636 65.6993 60.5628L68.4679 60.7937C68.5767 63.4373 68.7682 66.1515 69.1477 68.6847C69.3442 69.9402 69.6112 71.1951 70.0024 72.1632C70.1816 72.6341 70.4461 73.0381 70.5438 73.0768C70.5889 73.0989 70.5413 73.0197 70.3831 72.9436C70.2311 72.8687 70.0537 72.8816 70.0518 72.8699C70.0549 72.8601 70.0457 72.8601 70.1235 72.8232L70.5648 72.6133L71.4454 72.1952L73.1771 71.3111C74.3061 70.6849 75.426 70.0488 76.4908 69.3453C77.5544 68.6429 78.5926 67.9111 79.5659 67.1283C80.051 66.7461 80.522 66.3465 80.9781 65.9305C81.2067 65.7279 81.4162 65.5167 81.627 65.3135L81.9286 65.0127L82.1535 64.7782L86.5191 68.2764Z" fill="#FFC3BD"/>
<path d="M86.6417 59.6812C84.3755 59.1293 78.6016 66.5457 78.6016 66.5457L82.1056 73.1726C82.1056 73.1726 91.794 67.7367 91.4294 64.7444C91.0487 61.6286 89.9487 60.4867 86.6417 59.6812Z" fill="#407BFF"/>
<g opacity="0.2">
<g opacity="0.2">
<path opacity="0.2" d="M86.6417 59.6812C84.3755 59.1293 78.6016 66.5457 78.6016 66.5457L82.1056 73.1726C82.1056 73.1726 91.794 67.7367 91.4294 64.7444C91.0487 61.6286 89.9487 60.4867 86.6417 59.6812Z" fill="black"/>
</g>
</g>
<g opacity="0.2">
<g opacity="0.2">
<path opacity="0.2" d="M85.1445 62.245L85.6995 70.9231C83.772 72.232 82.1089 73.1701 82.1089 73.1701L81.376 71.7844L85.1445 62.245Z" fill="black"/>
</g>
</g>
<path d="M68.0282 62.6263L70.5824 56.9792L65.1563 58.2648C65.1563 58.2648 64.2194 61.6384 65.8707 63.2003L68.0282 62.6263Z" fill="#FFC3BD"/>
<path d="M70.2696 52.9377L65.6086 53.3214L65.1562 58.2648L70.5823 56.9793L70.2696 52.9377Z" fill="#FFC3BD"/>
<path d="M91.669 213.397L86.1997 213.61L85.2275 200.987L90.6968 200.774L91.669 213.397Z" fill="#FFC3BD"/>
<path d="M140.372 166.982L136.808 171.126L126.004 164.259L129.568 160.115L140.372 166.982Z" fill="#FFC3BD"/>
<path d="M135.609 170.889L138.876 165.697C138.93 165.607 139.016 165.539 139.118 165.507C139.219 165.476 139.329 165.482 139.426 165.525L143.933 167.501C144.401 167.706 144.575 168.324 144.294 168.755C143.124 170.546 142.468 171.352 141.031 173.636C140.147 175.041 138.714 177.912 137.494 179.853C136.3 181.749 134.278 180.697 134.611 179.78C136.105 175.672 135.674 173.7 135.409 171.84C135.362 171.509 135.433 171.173 135.609 170.889Z" fill="#263238"/>
<path d="M86.0187 213.287L91.954 211.636C92.0555 211.606 92.1647 211.613 92.2608 211.658C92.357 211.702 92.4334 211.78 92.4755 211.877L94.4667 216.353C94.6731 216.818 94.3839 217.392 93.8833 217.522C91.8044 218.062 90.773 218.219 88.1631 218.946C86.5576 219.392 81.8657 221.494 79.5699 221.673C77.3247 221.849 76.973 219.607 77.913 219.329C82.1253 218.077 84.1597 215.407 85.2258 213.855C85.415 213.579 85.6953 213.378 86.0181 213.287H86.0187Z" fill="#263238"/>
<g opacity="0.2">
<g opacity="0.2">
<path opacity="0.2" d="M85.2295 200.991L85.7301 207.497L91.2012 207.284L90.7013 200.778L85.2295 200.991Z" fill="black"/>
</g>
<g opacity="0.2">
<path opacity="0.2" d="M129.573 160.117L126.007 164.261L131.579 167.799L135.144 163.655L129.573 160.117Z" fill="black"/>
</g>
</g>
<path d="M83.7788 61.9491C83.2492 65.0311 82.7431 72.8147 85.021 90.9351L107.259 92.2999C107.433 83.8294 107.861 77.0023 112.495 60.6267C112.983 58.9021 111.75 57.1585 109.95 57.0523C108.257 56.9523 106.121 56.8872 103.95 56.9805C100.17 57.1438 97.072 57.3059 93.72 57.902C90.8327 58.4165 87.6772 59.2122 85.8374 59.7021C85.3137 59.8413 84.8413 60.1272 84.4764 60.5255C84.1116 60.9239 83.8696 61.418 83.7794 61.9491H83.7788Z" fill="#407BFF"/>
<g opacity="0.2">
<g opacity="0.2">
<path opacity="0.2" d="M83.7788 61.9491C83.2492 65.0311 82.7431 72.8147 85.021 90.9351L107.259 92.2999C107.433 83.8294 107.861 77.0023 112.495 60.6267C112.983 58.9021 111.75 57.1585 109.95 57.0523C108.257 56.9523 106.121 56.8872 103.95 56.9805C100.17 57.1438 97.072 57.3059 93.72 57.902C90.8327 58.4165 87.6772 59.2122 85.8374 59.7021C85.3137 59.8413 84.8413 60.1272 84.4764 60.5255C84.1116 60.9239 83.8696 61.418 83.7794 61.9491H83.7788Z" fill="black"/>
</g>
</g>
<path d="M85.0215 90.9351C85.0215 90.9351 78.0975 132.573 77.4251 149.182C76.7261 166.46 84.5463 205.752 84.5463 205.752H91.9648C91.9648 205.752 89.2598 168.241 90.9679 151.335C92.83 132.905 101.306 91.934 101.306 91.934L85.0215 90.9351Z" fill="#263238"/>
<path d="M92.6069 206.016H83.903L83.2646 203.258L93.0117 202.92L92.6069 206.016Z" fill="#407BFF"/>
<g opacity="0.2">
<g opacity="0.2">
<path opacity="0.2" d="M93.9658 101.949C87.8248 112.53 90.9525 132.71 92.4233 140.237C94.1061 129.171 96.6208 115.673 98.544 105.765C98.0675 100.064 96.7975 97.0715 93.9658 101.949Z" fill="black"/>
</g>
</g>
<path d="M90.8945 91.2955C90.8945 91.2955 93.9691 141.172 97.8161 148.072C103.914 159.006 129.753 167.982 129.753 167.982L134.613 162.331C134.613 162.331 118.431 148.964 109.875 141.371C107.841 127.576 115.031 105.804 107.26 92.2999L90.8945 91.2955Z" fill="#263238"/>
<path d="M107.673 91.0229L108.119 93.036C108.187 93.1944 107.995 93.3393 107.737 93.3233L84.8505 91.9192C84.6496 91.907 84.4896 91.7995 84.4853 91.6737L84.4074 89.6833C84.4012 89.5457 84.5829 89.4408 84.8023 89.4536L107.322 90.835C107.487 90.8461 107.63 90.921 107.674 91.0235L107.673 91.0229Z" fill="#407BFF"/>
<path d="M104.493 93.3393L105.096 93.3768C105.216 93.3835 105.312 93.3276 105.308 93.2521L105.185 90.6656C105.181 90.5895 105.08 90.5219 104.96 90.514L104.357 90.4777C104.236 90.4704 104.141 90.5268 104.145 90.6018L104.268 93.1883C104.272 93.2638 104.373 93.3319 104.493 93.3393Z" fill="#263238"/>
<path d="M86.5317 92.2373L87.1348 92.2748C87.2547 92.2815 87.3505 92.2256 87.3468 92.1501L87.2232 89.5636C87.2201 89.4875 87.1181 89.4199 86.9983 89.4119L86.3957 89.3757C86.2752 89.3677 86.1794 89.4248 86.1837 89.4997L86.3067 92.0863C86.3104 92.1618 86.4118 92.2299 86.5317 92.2373Z" fill="#263238"/>
<path d="M95.5115 92.7886L96.1153 92.8254C96.2351 92.8328 96.3303 92.7763 96.3266 92.7014L96.203 90.1149C96.1999 90.0387 96.0992 89.9712 95.9787 89.9632L95.3755 89.9264C95.2556 89.919 95.1605 89.9755 95.1642 90.051L95.2871 92.6375C95.2909 92.7131 95.3922 92.7812 95.5121 92.7886H95.5115Z" fill="#263238"/>
<path d="M135.224 161.696L129.195 168.705L126.335 167.569L133.053 159.006L135.224 161.696Z" fill="#407BFF"/>
<path d="M86.5496 78.6152C85.1048 78.9283 84.1178 80.1826 84.0776 81.5885C84.0094 81.4478 83.9294 81.3131 83.8385 81.1857C83.724 81.017 83.5923 80.8604 83.4454 80.7185C83.2946 80.5762 83.1303 80.4487 82.9547 80.3379C82.7816 80.2252 82.5965 80.1317 82.4029 80.0592C82.2116 79.9835 82.013 79.9276 81.8102 79.8922C81.6088 79.8524 81.4037 79.8345 81.1984 79.8388C80.9907 79.8437 80.7839 79.867 80.5804 79.9081C80.3771 79.953 80.1787 80.0211 79.9889 80.1009C79.7987 80.1826 79.6176 80.2841 79.4488 80.4036C79.2789 80.5172 79.1215 80.6483 78.9791 80.7947C78.8367 80.9455 78.7081 81.1087 78.5947 81.2821C78.4835 81.4534 78.3877 81.6345 78.3148 81.8304C78.2408 82.0209 78.1846 82.2178 78.1467 82.4185C78.1115 82.621 78.0959 82.8264 78.1003 83.0319C78.1008 83.4441 78.1901 83.8515 78.3624 84.2266C78.4427 84.4145 78.5459 84.5907 78.6621 84.7656C78.7826 84.9314 78.9136 85.0892 79.0613 85.2298C79.3582 85.5177 79.7108 85.7428 80.0977 85.8916C80.2881 85.9665 80.487 86.0193 80.691 86.0574C80.8455 86.0819 81 86.0905 81.1533 86.0973C79.8888 86.7217 79.1553 88.1313 79.4698 89.5642C79.6181 90.2399 79.9873 90.8479 80.5199 91.2932C81.0525 91.7386 81.7185 91.9963 82.414 92.0261C81.1706 92.6609 80.4586 94.0668 80.7689 95.482C80.9177 96.1572 81.2862 96.7649 81.8174 97.2112C82.3487 97.6575 83.0131 97.9176 83.7081 97.9512C83.0912 98.2687 82.5966 98.7791 82.3006 99.4035C82.0046 100.028 81.9237 100.732 82.0704 101.407C82.2209 102.089 82.5969 102.701 83.1386 103.146C83.6802 103.591 84.3563 103.843 85.059 103.862C84.5445 104.11 84.1074 104.491 83.7946 104.967C83.4601 105.489 83.2881 106.098 83.3002 106.716C83.3014 107.133 83.3904 107.538 83.5628 107.911C83.6432 108.099 83.7482 108.281 83.862 108.45C83.9825 108.615 84.1135 108.774 84.2612 108.916C84.4095 109.063 84.5726 109.188 84.7469 109.304C85.4535 109.75 86.3086 109.902 87.1268 109.726C87.3234 109.683 87.523 109.62 87.7109 109.534C87.9006 109.455 88.0841 109.35 88.2528 109.238C88.4209 109.118 88.5804 108.987 88.7225 108.84C88.869 108.687 88.9951 108.525 89.1057 108.353C89.2169 108.181 89.3127 108 89.3856 107.805C89.4604 107.615 89.5197 107.416 89.5537 107.216C89.5818 107.062 89.5975 106.906 89.6007 106.749C90.2267 108.013 91.65 108.746 93.0961 108.431C94.533 108.121 95.5261 106.878 95.5811 105.481C95.8954 106.102 96.409 106.603 97.0409 106.903C97.6728 107.203 98.3871 107.285 99.0715 107.138C99.7558 106.989 100.371 106.618 100.82 106.083C101.268 105.549 101.526 104.882 101.551 104.186C101.867 104.808 102.382 105.308 103.015 105.607C103.647 105.907 104.362 105.99 105.048 105.843C106.478 105.533 107.471 104.29 107.526 102.892C107.841 103.514 108.354 104.014 108.986 104.314C109.618 104.614 110.332 104.697 111.017 104.549C112.454 104.238 113.447 102.995 113.502 101.597C113.817 102.219 114.33 102.72 114.962 103.02C115.594 103.32 116.309 103.402 116.993 103.254C118.439 102.941 119.425 101.685 119.466 100.279C119.536 100.42 119.612 100.557 119.703 100.683C119.818 100.852 119.956 101.008 120.103 101.149C120.252 101.296 120.415 101.421 120.59 101.538C120.761 101.648 120.95 101.742 121.141 101.816C121.333 101.89 121.531 101.943 121.733 101.984C121.934 102.016 122.145 102.035 122.351 102.029C122.557 102.029 122.765 102.004 122.963 101.961C123.167 101.917 123.365 101.855 123.553 101.768C123.742 101.688 123.92 101.586 124.095 101.472C124.263 101.351 124.421 101.221 124.563 101.074C124.704 100.922 124.837 100.759 124.947 100.587C125.059 100.415 125.155 100.234 125.228 100.039C125.303 99.8496 125.362 99.6506 125.395 99.4505C125.433 99.2478 125.45 99.042 125.448 98.8359C125.435 98.4249 125.346 98.0197 125.186 97.6406C125.102 97.4545 125 97.2769 124.882 97.1101C124.766 96.939 124.632 96.7809 124.481 96.6386C124.331 96.4969 124.169 96.3687 123.997 96.2555C123.822 96.1454 123.637 96.0523 123.445 95.9774C123.253 95.9041 123.054 95.8484 122.852 95.8111C122.701 95.7874 122.549 95.773 122.397 95.7681C123.025 95.4596 123.531 94.9511 123.835 94.3236C124.139 93.6961 124.223 92.9856 124.073 92.3054C123.925 91.6307 123.556 91.0235 123.025 90.5781C122.494 90.1327 121.829 89.8741 121.135 89.8423C121.754 89.5252 122.25 89.0138 122.546 88.3876C122.842 87.7614 122.922 87.0555 122.772 86.3797C122.624 85.705 122.256 85.0979 121.724 84.6527C121.193 84.2075 120.528 83.9491 119.834 83.9178C120.452 83.6022 120.948 83.0922 121.245 82.4674C121.541 81.8425 121.621 81.1379 121.472 80.4631C121.322 79.7818 120.947 79.17 120.407 78.725C119.866 78.2799 119.191 78.0273 118.49 78.0074C118.627 77.9374 118.763 77.8662 118.893 77.7802C119.061 77.6622 119.219 77.5294 119.363 77.3836C119.505 77.2375 119.637 77.0742 119.747 76.9029C119.859 76.731 119.953 76.5437 120.028 76.3534C120.102 76.1649 120.162 75.966 120.195 75.7659C120.232 75.5628 120.249 75.3569 120.248 75.1507C120.244 74.9444 120.22 74.7388 120.178 74.5368C119.995 73.7268 119.499 73.0207 118.797 72.5709C118.09 72.1234 117.235 71.97 116.416 72.1436C116.219 72.1866 116.021 72.2554 115.831 72.3339C115.64 72.415 115.459 72.5169 115.29 72.6379C115.122 72.7514 114.963 72.8816 114.821 73.0283C114.679 73.1795 114.551 73.3426 114.438 73.5158C114.326 73.6877 114.23 73.8688 114.157 74.064C114.08 74.2539 114.024 74.4512 113.989 74.6528C113.96 74.8068 113.945 74.9629 113.942 75.1194C113.316 73.8565 111.892 73.1241 110.446 73.4372C109.763 73.5864 109.148 73.9563 108.698 74.4891C108.249 75.0218 107.989 75.6875 107.96 76.3823C107.645 75.7622 107.131 75.2638 106.499 74.9651C105.867 74.6665 105.154 74.5845 104.47 74.732C103.787 74.8805 103.173 75.2502 102.724 75.7832C102.275 76.3161 102.017 76.9821 101.99 77.6765C101.675 77.0559 101.162 76.5569 100.53 76.2579C99.8984 75.959 99.1847 75.877 98.5011 76.025C97.8174 76.1742 97.2027 76.5442 96.7529 77.0771C96.3032 77.61 96.0437 78.2758 96.0149 78.9706C95.6992 78.3506 95.1852 77.8521 94.5537 77.5535C93.9221 77.2548 93.2086 77.1728 92.5251 77.3204C91.8418 77.469 91.2276 77.8388 90.7787 78.3717C90.3299 78.9046 90.0718 79.5705 90.045 80.2648C89.7276 79.645 89.2125 79.147 88.5802 78.8486C87.9478 78.5502 87.2339 78.4681 86.5496 78.6152Z" fill="#407BFF"/>
<g opacity="0.7">
<g opacity="0.7">
<path opacity="0.7" d="M86.5496 78.6152C85.1048 78.9283 84.1178 80.1826 84.0776 81.5885C84.0094 81.4478 83.9294 81.3131 83.8385 81.1857C83.724 81.017 83.5923 80.8604 83.4454 80.7185C83.2946 80.5762 83.1303 80.4487 82.9547 80.3379C82.7816 80.2252 82.5965 80.1317 82.4029 80.0592C82.2116 79.9835 82.013 79.9276 81.8102 79.8922C81.6088 79.8524 81.4037 79.8345 81.1984 79.8388C80.9907 79.8437 80.7839 79.867 80.5804 79.9081C80.3771 79.953 80.1787 80.0211 79.9889 80.1009C79.7987 80.1826 79.6176 80.2841 79.4488 80.4036C79.2789 80.5172 79.1215 80.6483 78.9791 80.7947C78.8367 80.9455 78.7081 81.1087 78.5947 81.2821C78.4835 81.4534 78.3877 81.6345 78.3148 81.8304C78.2408 82.0209 78.1846 82.2178 78.1467 82.4185C78.1115 82.621 78.0959 82.8264 78.1003 83.0319C78.1008 83.4441 78.1901 83.8515 78.3624 84.2266C78.4427 84.4145 78.5459 84.5907 78.6621 84.7656C78.7826 84.9314 78.9136 85.0892 79.0613 85.2298C79.3582 85.5177 79.7108 85.7428 80.0977 85.8916C80.2881 85.9665 80.487 86.0193 80.691 86.0574C80.8455 86.0819 81 86.0905 81.1533 86.0973C79.8888 86.7217 79.1553 88.1313 79.4698 89.5642C79.6181 90.2399 79.9873 90.8479 80.5199 91.2932C81.0525 91.7386 81.7185 91.9963 82.414 92.0261C81.1706 92.6609 80.4586 94.0668 80.7689 95.482C80.9177 96.1572 81.2862 96.7649 81.8174 97.2112C82.3487 97.6575 83.0131 97.9176 83.7081 97.9512C83.0912 98.2687 82.5966 98.7791 82.3006 99.4035C82.0046 100.028 81.9237 100.732 82.0704 101.407C82.2209 102.089 82.5969 102.701 83.1386 103.146C83.6802 103.591 84.3563 103.843 85.059 103.862C84.5445 104.11 84.1074 104.491 83.7946 104.967C83.4601 105.489 83.2881 106.098 83.3002 106.716C83.3014 107.133 83.3904 107.538 83.5628 107.911C83.6432 108.099 83.7482 108.281 83.862 108.45C83.9825 108.615 84.1135 108.774 84.2612 108.916C84.4095 109.063 84.5726 109.188 84.7469 109.304C85.4535 109.75 86.3086 109.902 87.1268 109.726C87.3234 109.683 87.523 109.62 87.7109 109.534C87.9006 109.455 88.0841 109.35 88.2528 109.238C88.4209 109.118 88.5804 108.987 88.7225 108.84C88.869 108.687 88.9951 108.525 89.1057 108.353C89.2169 108.181 89.3127 108 89.3856 107.805C89.4604 107.615 89.5197 107.416 89.5537 107.216C89.5818 107.062 89.5975 106.906 89.6007 106.749C90.2267 108.013 91.65 108.746 93.0961 108.431C94.533 108.121 95.5261 106.878 95.5811 105.481C95.8954 106.102 96.409 106.603 97.0409 106.903C97.6728 107.203 98.3871 107.285 99.0715 107.138C99.7558 106.989 100.371 106.618 100.82 106.083C101.268 105.549 101.526 104.882 101.551 104.186C101.867 104.808 102.382 105.308 103.015 105.607C103.647 105.907 104.362 105.99 105.048 105.843C106.478 105.533 107.471 104.29 107.526 102.892C107.841 103.514 108.354 104.014 108.986 104.314C109.618 104.614 110.332 104.697 111.017 104.549C112.454 104.238 113.447 102.995 113.502 101.597C113.817 102.219 114.33 102.72 114.962 103.02C115.594 103.32 116.309 103.402 116.993 103.254C118.439 102.941 119.425 101.685 119.466 100.279C119.536 100.42 119.612 100.557 119.703 100.683C119.818 100.852 119.956 101.008 120.103 101.149C120.252 101.296 120.415 101.421 120.59 101.538C120.761 101.648 120.95 101.742 121.141 101.816C121.333 101.89 121.531 101.943 121.733 101.984C121.934 102.016 122.145 102.035 122.351 102.029C122.557 102.029 122.765 102.004 122.963 101.961C123.167 101.917 123.365 101.855 123.553 101.768C123.742 101.688 123.92 101.586 124.095 101.472C124.263 101.351 124.421 101.221 124.563 101.074C124.704 100.922 124.837 100.759 124.947 100.587C125.059 100.415 125.155 100.234 125.228 100.039C125.303 99.8496 125.362 99.6506 125.395 99.4505C125.433 99.2478 125.45 99.042 125.448 98.8359C125.435 98.4249 125.346 98.0197 125.186 97.6406C125.102 97.4545 125 97.2769 124.882 97.1101C124.766 96.939 124.632 96.7809 124.481 96.6386C124.331 96.4969 124.169 96.3687 123.997 96.2555C123.822 96.1454 123.637 96.0523 123.445 95.9774C123.253 95.9041 123.054 95.8484 122.852 95.8111C122.701 95.7874 122.549 95.773 122.397 95.7681C123.025 95.4596 123.531 94.9511 123.835 94.3236C124.139 93.6961 124.223 92.9856 124.073 92.3054C123.925 91.6307 123.556 91.0235 123.025 90.5781C122.494 90.1327 121.829 89.8741 121.135 89.8423C121.754 89.5252 122.25 89.0138 122.546 88.3876C122.842 87.7614 122.922 87.0555 122.772 86.3797C122.624 85.705 122.256 85.0979 121.724 84.6527C121.193 84.2075 120.528 83.9491 119.834 83.9178C120.452 83.6022 120.948 83.0922 121.245 82.4674C121.541 81.8425 121.621 81.1379 121.472 80.4631C121.322 79.7818 120.947 79.17 120.407 78.725C119.866 78.2799 119.191 78.0273 118.49 78.0074C118.627 77.9374 118.763 77.8662 118.893 77.7802C119.061 77.6622 119.219 77.5294 119.363 77.3836C119.505 77.2375 119.637 77.0742 119.747 76.9029C119.859 76.731 119.953 76.5437 120.028 76.3534C120.102 76.1649 120.162 75.966 120.195 75.7659C120.232 75.5628 120.249 75.3569 120.248 75.1507C120.244 74.9444 120.22 74.7388 120.178 74.5368C119.995 73.7268 119.499 73.0207 118.797 72.5709C118.09 72.1234 117.235 71.97 116.416 72.1436C116.219 72.1866 116.021 72.2554 115.831 72.3339C115.64 72.415 115.459 72.5169 115.29 72.6379C115.122 72.7514 114.963 72.8816 114.821 73.0283C114.679 73.1795 114.551 73.3426 114.438 73.5158C114.326 73.6877 114.23 73.8688 114.157 74.064C114.08 74.2539 114.024 74.4512 113.989 74.6528C113.96 74.8068 113.945 74.9629 113.942 75.1194C113.316 73.8565 111.892 73.1241 110.446 73.4372C109.763 73.5864 109.148 73.9563 108.698 74.4891C108.249 75.0218 107.989 75.6875 107.96 76.3823C107.645 75.7622 107.131 75.2638 106.499 74.9651C105.867 74.6665 105.154 74.5845 104.47 74.732C103.787 74.8805 103.173 75.2502 102.724 75.7832C102.275 76.3161 102.017 76.9821 101.99 77.6765C101.675 77.0559 101.162 76.5569 100.53 76.2579C99.8984 75.959 99.1847 75.877 98.5011 76.025C97.8174 76.1742 97.2027 76.5442 96.7529 77.0771C96.3032 77.61 96.0437 78.2758 96.0149 78.9706C95.6992 78.3506 95.1852 77.8521 94.5537 77.5535C93.9221 77.2548 93.2086 77.1728 92.5251 77.3204C91.8418 77.469 91.2276 77.8388 90.7787 78.3717C90.3299 78.9046 90.0718 79.5705 90.045 80.2648C89.7276 79.645 89.2125 79.147 88.5802 78.8486C87.9478 78.5502 87.2339 78.4681 86.5496 78.6152Z" fill="white"/>
</g>
</g>
<path d="M119.669 98.1815L88.5388 104.926C88.3914 104.958 88.2392 104.961 88.0908 104.934C87.9424 104.908 87.8007 104.852 87.6738 104.771C87.5469 104.691 87.4373 104.586 87.3513 104.462C87.2653 104.339 87.2045 104.201 87.1724 104.054L82.999 85.0456C82.9342 84.75 82.9901 84.441 83.1546 84.1865C83.319 83.9319 83.5785 83.7527 83.876 83.6881L115.006 76.9428C115.303 76.8785 115.614 76.9342 115.87 77.0976C116.126 77.2609 116.307 77.5186 116.372 77.814L120.546 96.8234C120.61 97.1191 120.554 97.4283 120.39 97.683C120.225 97.9376 119.966 98.1169 119.668 98.1815H119.669Z" fill="white"/>
<path d="M112.465 62.3561C113.53 65.0299 114.49 67.7442 115.342 70.4927C116.214 73.2309 116.985 76.0096 117.618 78.8546C117.7 79.2076 117.769 79.5698 117.843 79.9278L117.953 80.4656L118.007 80.7357L118.053 80.9917C118.068 81.1047 118.085 81.1943 118.092 81.3294C118.142 81.9332 118.034 82.5397 117.78 83.0902C117.484 83.7373 116.958 84.2413 116.508 84.5151C116.14 84.7457 115.735 84.9132 115.31 85.0106C115.01 85.0828 114.704 85.1291 114.395 85.1487C113.315 85.2107 112.506 85.0775 111.702 84.94C110.939 84.7898 110.184 84.6042 109.439 84.3837C106.545 83.5218 103.899 82.3946 101.278 81.0672L102.268 78.4887C104.981 79.118 107.751 79.7552 110.399 80.169C111.058 80.2703 111.712 80.3483 112.328 80.3882C112.931 80.4355 113.548 80.4336 113.886 80.3581C114.041 80.3422 114.121 80.228 113.797 80.3925C113.645 80.4754 113.376 80.7142 113.225 81.0384C113.116 81.2647 113.061 81.5131 113.065 81.764C113.072 81.8101 113.064 81.8138 113.069 81.8402C113.069 81.8574 113.081 81.9046 113.063 81.8365L112.995 81.5909L112.86 81.0967C112.768 80.7682 112.684 80.4404 112.582 80.1113C111.819 77.4794 110.954 74.8443 110.053 72.2142C109.135 69.5933 108.197 66.9798 107.236 64.3742L112.465 62.3561Z" fill="#FFC3BD"/>
<path d="M111.714 57.3102C113.9 58.1193 116.102 65.9053 116.102 65.9053L107.077 71.5143C107.077 71.5143 104.206 63.9997 105.319 61.1964C106.48 58.2765 109.219 56.3862 111.714 57.3102Z" fill="#407BFF"/>
<g opacity="0.2">
<g opacity="0.2">
<path opacity="0.2" d="M111.714 57.3102C113.9 58.1193 116.102 65.9053 116.102 65.9053L107.077 71.5143C107.077 71.5143 104.206 63.9997 105.319 61.1964C106.48 58.2765 109.219 56.3862 111.714 57.3102Z" fill="black"/>
</g>
</g>
<path d="M134.63 173.705C134.391 173.772 134.156 173.712 133.931 173.523C133.761 173.382 133.744 173.222 133.758 173.113C133.85 172.424 135.646 171.586 135.85 171.493C135.873 171.482 135.899 171.478 135.925 171.481C135.95 171.485 135.973 171.497 135.992 171.514C136.011 171.531 136.024 171.553 136.03 171.577C136.037 171.602 136.036 171.627 136.028 171.651C135.802 172.317 135.332 173.445 134.693 173.685C134.672 173.692 134.651 173.699 134.63 173.705ZM134.015 173.148C134.009 173.193 134.013 173.255 134.098 173.326C134.255 173.457 134.406 173.5 134.56 173.457C134.92 173.356 135.331 172.769 135.675 171.864C134.967 172.22 134.065 172.785 134.015 173.148Z" fill="#407BFF"/>
<path d="M133.446 171.795C133.358 171.713 133.231 171.531 133.37 171.237C133.412 171.146 133.472 171.066 133.548 171.002C133.624 170.937 133.713 170.89 133.809 170.864C134.573 170.64 135.917 171.466 135.973 171.5C135.992 171.512 136.008 171.529 136.019 171.549C136.029 171.569 136.034 171.591 136.034 171.614C136.033 171.636 136.027 171.658 136.015 171.677C136.003 171.697 135.987 171.712 135.967 171.724C135.914 171.751 135.851 171.779 135.782 171.805C135.143 172.045 133.86 172.183 133.446 171.795ZM133.607 171.345C133.535 171.496 133.579 171.565 133.625 171.608C133.904 171.869 134.988 171.813 135.617 171.593C135.155 171.342 134.338 170.978 133.883 171.112C133.822 171.127 133.765 171.156 133.717 171.197C133.669 171.237 133.631 171.288 133.606 171.345H133.607Z" fill="#407BFF"/>
<path d="M82.9203 214.789C82.7046 214.684 82.5711 214.501 82.5235 214.247C82.508 214.177 82.5109 214.105 82.5318 214.037C82.5526 213.968 82.5909 213.906 82.6428 213.857C83.1903 213.325 85.5981 213.808 85.87 213.865C85.8964 213.87 85.9205 213.883 85.9388 213.902C85.9571 213.922 85.9687 213.947 85.9719 213.973C85.9757 214 85.971 214.027 85.9584 214.05C85.9459 214.074 85.9262 214.093 85.9021 214.105C85.4788 214.319 84.8744 214.594 84.2928 214.756C83.7675 214.902 83.2608 214.956 82.9209 214.789H82.9203ZM82.8245 214.042C82.7812 214.085 82.7664 214.133 82.7794 214.2C82.8115 214.372 82.8949 214.488 83.0352 214.558C83.4369 214.755 84.3206 214.563 85.4361 214.044C84.6142 213.9 83.5457 213.793 83.0451 213.931C82.9636 213.95 82.8879 213.988 82.8245 214.042Z" fill="#407BFF"/>
<path d="M85.8244 214.118C85.1149 214.011 83.5501 213.225 83.4803 212.604C83.4636 212.456 83.5149 212.254 83.8517 212.122C83.9719 212.073 84.1009 212.051 84.2304 212.054C84.3599 212.058 84.4873 212.089 84.6044 212.144C85.4239 212.508 85.9436 213.887 85.9659 213.946C85.9722 213.962 85.975 213.98 85.974 213.998C85.973 214.016 85.9683 214.033 85.9601 214.049C85.952 214.065 85.9406 214.079 85.9267 214.091C85.9128 214.102 85.8967 214.11 85.8794 214.115C85.8614 214.12 85.8427 214.12 85.8244 214.117V214.118ZM83.9463 212.362C83.7244 212.449 83.7361 212.543 83.7386 212.575C83.7806 212.948 84.877 213.603 85.6278 213.811C85.4499 213.416 85.0358 212.618 84.4981 212.379C84.4124 212.338 84.319 212.316 84.224 212.313C84.129 212.31 84.0344 212.326 83.9463 212.362V212.362Z" fill="#407BFF"/>
<path d="M103.951 56.7613C100.169 56.924 97.0727 57.0842 93.7207 57.6822C92.4878 57.8989 91.2042 58.1721 89.9948 58.4453V58.4527C89.0752 59.4301 87.4703 64.3674 89.2717 67.7072C90.4583 65.7254 92.4507 63.9972 93.78 63.8253C95.2428 64.2188 96.6834 66.4118 97.0338 68.3415C99.4193 67.9129 104.58 62.3727 107.511 57.9088L108.27 56.7545C106.831 56.6995 105.39 56.7017 103.951 56.7613Z" fill="#407BFF"/>
<path d="M103.635 45.8166C102.79 49.0907 101.781 55.0417 103.95 56.9811C103.95 56.9811 101.91 60.2737 96.732 60.8747C91.0291 61.5372 93.7205 57.9026 93.7205 57.9026C97.4439 56.7153 97.515 54.063 97.0299 51.6214L103.635 45.8166Z" fill="#FFC3BD"/>
<path d="M93.7205 57.9026C93.7205 57.9026 91.4388 60.289 93.6068 64.6437C98.1967 62.5256 102.588 60.0121 103.95 56.9805L93.7205 57.9026Z" fill="#FFC3BD"/>
<g opacity="0.2">
<g opacity="0.2">
<path opacity="0.2" d="M100.943 48.1845L97.0332 51.6183C97.15 52.1954 97.2322 52.7848 97.239 53.3644C98.653 53.0396 100.99 51.641 101.228 50.1927C101.346 49.4714 101.042 48.5069 100.943 48.1852V48.1845Z" fill="black"/>
</g>
</g>
<path d="M107.977 41.8659C106.035 46.9186 105.322 49.0987 101.869 50.9295C96.6754 53.6818 90.8526 50.2069 91.2357 44.6795C91.5799 39.7042 94.6978 32.2761 100.42 31.804C106.058 31.3392 109.918 36.8137 107.977 41.8665V41.8659Z" fill="#FFC3BD"/>
<path d="M96.4281 31.7776C98.7475 31.2416 99.52 33.8754 95.4517 34.8074C91.3827 35.7387 94.5142 32.2208 96.4281 31.7782V31.7776Z" fill="#263238"/>
<path d="M98.8363 30.384C95.5164 31.629 96.9941 35.3998 100.746 36.4804C104.497 37.5591 103.258 43.9011 106.631 45.2935C110.003 46.6872 111.791 36.0267 108.88 33.0307C105.971 30.0352 101.065 29.5478 98.8363 30.3833V30.384Z" fill="#263238"/>
<path d="M95.7338 40.3912C95.7338 40.3912 94.4483 41.9746 93.3848 42.6008C93.7797 43.2915 94.8018 43.3492 94.8018 43.3492L95.7338 40.3912Z" fill="#ED847E"/>
<path d="M96.5875 45.7085C96.3719 45.6756 96.1591 45.6266 95.951 45.5618C95.9182 45.5514 95.8909 45.5285 95.875 45.4981C95.8591 45.4677 95.856 45.4324 95.8663 45.3997C95.8774 45.3676 95.9004 45.3409 95.9306 45.3252C95.9608 45.3094 95.996 45.3058 96.0288 45.315C97.8884 45.8927 99.1528 44.8748 99.1658 44.8637C99.1789 44.8524 99.1941 44.8438 99.2106 44.8384C99.2271 44.8331 99.2445 44.831 99.2617 44.8324C99.279 44.8339 99.2959 44.8387 99.3112 44.8467C99.3266 44.8547 99.3402 44.8656 99.3512 44.8789C99.3623 44.8922 99.3705 44.9076 99.3755 44.9241C99.3804 44.9406 99.382 44.958 99.3801 44.9751C99.3782 44.9922 99.3728 45.0088 99.3644 45.0238C99.3559 45.0389 99.3445 45.0521 99.3308 45.0627C99.2814 45.1038 98.2184 45.9541 96.5875 45.7085Z" fill="#263238"/>
<path d="M108.1 46.4692C107.414 47.3594 106.379 47.853 105.457 47.9598C104.071 48.1213 103.594 46.8388 104.16 45.6514C104.67 44.5832 106.004 43.211 107.309 43.599C108.593 43.9815 108.884 45.4513 108.1 46.4692Z" fill="#FFC3BD"/>
<path d="M102.193 40.4876C102.14 40.4742 102.092 40.4443 102.058 40.4024C102.023 40.3605 102.002 40.3086 101.999 40.2543C101.924 39.062 100.613 38.2455 100.599 38.2369C100.54 38.2009 100.498 38.1432 100.483 38.0766C100.467 38.0099 100.478 37.9397 100.514 37.8814C100.551 37.8231 100.609 37.7815 100.676 37.7657C100.743 37.75 100.813 37.7613 100.872 37.7973C100.935 37.8366 102.426 38.7655 102.517 40.2211C102.52 40.2619 102.513 40.3026 102.496 40.34C102.48 40.3774 102.455 40.4105 102.423 40.4365C102.392 40.4625 102.354 40.4806 102.314 40.4895C102.274 40.4984 102.233 40.4977 102.193 40.4876Z" fill="#263238"/>
<path d="M99.3488 41.1255C99.2061 41.5104 98.8853 41.7474 98.6319 41.6541C98.3786 41.562 98.2896 41.1752 98.4323 40.7896C98.5745 40.4047 98.8958 40.1677 99.1486 40.2616C99.402 40.3537 99.4916 40.7405 99.3488 41.1255Z" fill="#263238"/>
<path d="M94.5597 39.4494C94.4163 39.8343 94.0962 40.0713 93.8428 39.9774C93.5895 39.8853 93.4992 39.4985 93.642 39.1136C93.7847 38.7286 94.1061 38.4923 94.3589 38.585C94.6122 38.6771 94.7019 39.0638 94.5591 39.4494H94.5597Z" fill="#263238"/>
<path d="M94.4637 38.6476L93.6318 38.0404C93.6318 38.0404 93.8413 38.9367 94.4637 38.647V38.6476Z" fill="#263238"/>
<path d="M99.2518 40.3236L98.4199 39.7159C98.4199 39.7159 98.63 40.6134 99.2518 40.3236Z" fill="#263238"/>
<path d="M93.4615 36.2072C93.4047 36.2058 93.35 36.1861 93.3056 36.151C93.2612 36.116 93.2295 36.0675 93.2153 36.013C93.2011 35.9584 93.2052 35.9007 93.227 35.8487C93.2488 35.7967 93.2871 35.7531 93.336 35.7246C94.5819 35.0149 95.6578 35.5441 95.7029 35.5668C95.7334 35.5821 95.7605 35.6033 95.7827 35.629C95.8049 35.6547 95.8218 35.6845 95.8324 35.7167C95.843 35.749 95.8472 35.7829 95.8446 35.8167C95.842 35.8505 95.8327 35.8835 95.8173 35.9137C95.8019 35.9439 95.7806 35.9709 95.7547 35.9929C95.7288 36.015 95.6988 36.0318 95.6664 36.0423C95.634 36.0529 95.5997 36.057 95.5657 36.0544C95.5317 36.0518 95.4985 36.0426 95.4681 36.0273C95.4316 36.0101 94.5906 35.6055 93.5943 36.1722C93.554 36.1955 93.5081 36.2076 93.4615 36.2072Z" fill="#263238"/>
<path d="M102.988 78.7176L99.2536 74.1456L98.2061 79.5888C98.2061 79.5888 100.918 81.8224 103.03 80.9671L102.988 78.7176Z" fill="#FFC3BD"/>
<path d="M95.9325 73.3905L94.1279 77.7262L98.2049 79.5889L99.2524 74.145L95.9325 73.3905Z" fill="#FFC3BD"/>
<path d="M253.53 121.092L252.77 113.231L253.352 113.176L254.113 121.037L253.53 121.092Z" fill="#407BFF"/>
<path d="M254.102 127.01L253.795 123.837L254.379 123.782L254.685 126.955L254.102 127.01Z" fill="#407BFF"/>
<path d="M113.315 191.844L257.57 178.07L249.316 92.756L105.061 106.53L113.315 191.844Z" fill="#407BFF"/>
<g opacity="0.1">
<g opacity="0.1">
<path opacity="0.1" d="M113.315 191.844L257.57 178.07L249.316 92.756L105.061 106.53L113.315 191.844Z" fill="black"/>
</g>
</g>
<g opacity="0.1">
<g opacity="0.1">
<path opacity="0.1" d="M181.69 146.176L105.06 106.53L249.316 92.7555L181.69 146.176Z" fill="#263238"/>
</g>
</g>
<path d="M164.234 59.785L105.06 106.53L249.316 92.7554L182.262 58.0635C179.411 56.5886 176.191 55.9663 172.991 56.2718C169.792 56.5774 166.75 57.7976 164.234 59.785Z" fill="#407BFF"/>
<g opacity="0.2">
<g opacity="0.2">
<path opacity="0.2" d="M243.957 93.2675L180.246 60.3056C178.095 59.1923 175.665 58.7225 173.251 58.9531C170.836 59.1836 168.541 60.1047 166.642 61.6047L110.418 106.018L243.957 93.2675Z" fill="#263238"/>
</g>
</g>
<path d="M217.316 92.2219L236.839 97.3999L237.307 102.241L181.69 146.176L118.668 113.57L117.731 103.894L217.316 92.2219Z" fill="white"/>
<path d="M217.315 92.2219L221.001 102.375L236.838 97.3999L217.315 92.2219Z" fill="#E0E0E0"/>
<path d="M217.315 92.2219L219.208 100.595L236.838 97.3999L217.315 92.2219Z" fill="#F0F0F0"/>
<path d="M193.221 137.054L257.57 178.071L113.314 191.844L168.621 139.403C175.294 133.076 185.457 132.105 193.221 137.054Z" fill="#407BFF"/>
</g>
<defs>
<clipPath id="clip0">
<rect width="309" height="229" fill="white"/>
</clipPath>
</defs>
</svg>
