<svg width="22" height="22" viewBox="0 0 22 22" fill="#4A4A4A" xmlns="http://www.w3.org/2000/svg">
    <path fill-rule="evenodd" clip-rule="evenodd" d="M2.10186 2.10174C2.45984 1.74376 3.04024 1.74376 3.39822 2.10174L19.8982 18.6017C20.2562 18.9597 20.2562 19.5401 19.8982 19.8981C19.5402 20.2561 18.9598 20.2561 18.6019 19.8981L2.10186 3.3981C1.74388 3.04012 1.74388 2.45972 2.10186 2.10174Z"/>
    <path fill-rule="evenodd" clip-rule="evenodd" d="M10.3504 9.0568C10.7083 9.41491 10.7081 9.99531 10.35 10.3532C10.1779 10.5251 10.0812 10.7583 10.0811 11.0015C10.0811 11.2447 10.1776 11.478 10.3495 11.6501C10.5214 11.8221 10.7546 11.9188 10.9978 11.9189C11.2411 11.919 11.4744 11.8224 11.6464 11.6505C12.0045 11.2927 12.5849 11.2929 12.9428 11.651C13.3006 12.0091 13.3004 12.5895 12.9423 12.9473C12.4263 13.4629 11.7266 13.7525 10.9972 13.7522C10.2678 13.7519 9.56829 13.4619 9.05268 12.946C8.53707 12.43 8.24755 11.7303 8.2478 11.0009C8.24806 10.2714 8.53808 9.57196 9.05406 9.05634C9.41216 8.69849 9.99256 8.69869 10.3504 9.0568Z"/>
    <path fill-rule="evenodd" clip-rule="evenodd" d="M10.478 5.5154L17.8212 12.8506C18.262 12.3 18.6897 11.6836 19.1034 10.9998C16.8136 7.21355 14.1049 5.49989 11 5.49989L10.9967 5.49989C10.8235 5.49927 10.6505 5.50446 10.478 5.5154ZM11.0016 3.66656C10.0983 3.66351 9.19907 3.78805 8.3306 4.03649C8.01829 4.12583 7.77659 4.37378 7.69525 4.68826C7.61391 5.00273 7.70507 5.33678 7.93488 5.56634L17.2244 14.8458C17.4007 15.0219 17.6413 15.1187 17.8905 15.1137C18.1397 15.1087 18.3762 15.0025 18.5454 14.8194C19.4174 13.8759 20.2214 12.7511 20.9624 11.4548C21.1236 11.173 21.1236 10.8269 20.9625 10.5451C18.4187 6.09365 15.1075 3.6672 11.0016 3.66656ZM6.83791 5.58941C7.1221 6.00838 7.01283 6.5784 6.59386 6.86259C5.26997 7.76059 4.03173 9.12413 2.89656 11C5.18632 14.7862 7.89504 16.4999 11 16.4999C12.5944 16.4999 14.0517 16.0511 15.398 15.1432C15.8177 14.8601 16.3874 14.9709 16.6705 15.3906C16.9536 15.8103 16.8428 16.38 16.4231 16.6631C14.7792 17.7718 12.9659 18.3332 11 18.3332C6.89328 18.3332 3.58156 15.9067 1.03741 11.4547C0.876345 11.1729 0.876365 10.8268 1.03746 10.545C2.34004 8.26619 3.84184 6.51399 5.56472 5.34536C5.98369 5.06117 6.55372 5.17043 6.83791 5.58941Z"/>
</svg>
