<svg width="22" height="22" viewBox="0 0 22 22" fill="#4A4A4A" xmlns="http://www.w3.org/2000/svg">
<path fill-rule="evenodd" clip-rule="evenodd" d="M11 10.0833C10.4937 10.0833 10.0833 10.4937 10.0833 11C10.0833 11.5063 10.4937 11.9167 11 11.9167C11.5063 11.9167 11.9167 11.5063 11.9167 11C11.9167 10.4937 11.5063 10.0833 11 10.0833ZM8.25 11C8.25 9.48122 9.48122 8.25 11 8.25C12.5188 8.25 13.75 9.48122 13.75 11C13.75 12.5188 12.5188 13.75 11 13.75C9.48122 13.75 8.25 12.5188 8.25 11Z"/>
<path fill-rule="evenodd" clip-rule="evenodd" d="M2.89656 11.0001C5.18633 14.7864 7.89507 16.5001 11 16.5001C14.105 16.5001 16.8137 14.7864 19.1035 11.0001C16.8137 7.21377 14.105 5.50008 11 5.50008C7.89507 5.50008 5.18633 7.21377 2.89656 11.0001ZM1.03747 10.5453C3.58162 6.09325 6.89334 3.66675 11 3.66675C15.1067 3.66675 18.4184 6.09325 20.9626 10.5453C21.1236 10.8271 21.1236 11.1731 20.9626 11.4549C18.4184 15.9069 15.1067 18.3334 11 18.3334C6.89334 18.3334 3.58162 15.9069 1.03747 11.4549C0.876424 11.1731 0.876424 10.8271 1.03747 10.5453Z"/>
</svg>
